<svg width="211" height="150" viewBox="0 0 211 150" fill="none" xmlns="http://www.w3.org/2000/svg">
<g clip-path="url(#clip0)">
<rect width="210.821" height="150" fill="white"/>
<rect x="-1.25" y="-1.25" width="213.5" height="18.5" fill="black" fill-opacity="0.25" stroke="black" stroke-width="2.5"/>
<rect x="3.75" y="2.75" width="10.5" height="10.5" rx="3.25" fill="black" fill-opacity="0.25" stroke="black" stroke-width="2.5"/>
<rect x="159.75" y="2.75" width="47.5" height="10.5" rx="3.25" fill="black" fill-opacity="0.25" stroke="black" stroke-width="2.5"/>
<rect x="60.75" y="2.75" width="10.5" height="10.5" rx="3.25" fill="black" fill-opacity="0.25" stroke="black" stroke-width="2.5"/>
<rect x="46.75" y="2.75" width="10.5" height="10.5" rx="3.25" fill="black" fill-opacity="0.25" stroke="black" stroke-width="2.5"/>
<rect x="32.75" y="2.75" width="10.5" height="10.5" rx="3.25" fill="black" fill-opacity="0.25" stroke="black" stroke-width="2.5"/>
<rect x="18.75" y="2.75" width="10.5" height="10.5" rx="3.25" fill="black" fill-opacity="0.25" stroke="black" stroke-width="2.5"/>
<rect x="80.75" y="2.75" width="10.5" height="10.5" rx="3.25" fill="black" fill-opacity="0.25" stroke="black" stroke-width="2.5"/>
<rect x="94.75" y="2.75" width="10.5" height="10.5" rx="3.25" fill="black" fill-opacity="0.25" stroke="black" stroke-width="2.5"/>
<rect x="108.75" y="2.75" width="10.5" height="10.5" rx="3.25" fill="black" fill-opacity="0.25" stroke="black" stroke-width="2.5"/>
<rect x="59.75" y="132.75" width="90.5" height="18.5" fill="black" fill-opacity="0.25" stroke="black" stroke-width="2.5"/>
<rect x="106.75" y="136.75" width="10.5" height="10.5" rx="3.25" fill="black" fill-opacity="0.25" stroke="black" stroke-width="2.5"/>
<rect x="92.75" y="136.75" width="10.5" height="10.5" rx="3.25" fill="black" fill-opacity="0.25" stroke="black" stroke-width="2.5"/>
<rect x="78.75" y="136.75" width="10.5" height="10.5" rx="3.25" fill="black" fill-opacity="0.25" stroke="black" stroke-width="2.5"/>
<rect x="64.75" y="136.75" width="10.5" height="10.5" rx="3.25" fill="black" fill-opacity="0.25" stroke="black" stroke-width="2.5"/>
<rect x="120.75" y="136.75" width="10.5" height="10.5" rx="3.25" fill="black" fill-opacity="0.25" stroke="black" stroke-width="2.5"/>
<rect x="134.75" y="136.75" width="10.5" height="10.5" rx="3.25" fill="black" fill-opacity="0.25" stroke="black" stroke-width="2.5"/>
</g>
<defs>
<clipPath id="clip0">
<rect width="210.821" height="150" fill="white"/>
</clipPath>
</defs>
</svg>
