<svg width="211" height="150" viewBox="0 0 211 150" fill="none" xmlns="http://www.w3.org/2000/svg">
<g clip-path="url(#clip0)">
<rect width="210.821" height="150" fill="white"/>
<rect x="-1" y="-1" width="213" height="18" fill="black" fill-opacity="0.25" stroke="black" stroke-width="2"/>
<rect x="4" y="3" width="20" height="10" rx="3" fill="black" fill-opacity="0.5" stroke="black" stroke-width="2"/>
<rect x="173" y="3" width="34" height="10" rx="3" fill="black" fill-opacity="0.25" stroke="black" stroke-width="2"/>
<rect x="17" y="17" width="134" height="18" transform="rotate(90 17 17)" fill="black" fill-opacity="0.25" stroke="black" stroke-width="2"/>
<rect x="13" y="64" width="10" height="10" rx="3" transform="rotate(90 13 64)" fill="black" fill-opacity="0.25" stroke="black" stroke-width="2"/>
<rect x="13" y="50" width="10" height="10" rx="3" transform="rotate(90 13 50)" fill="black" fill-opacity="0.25" stroke="black" stroke-width="2"/>
<rect x="13" y="36" width="10" height="10" rx="3" transform="rotate(90 13 36)" fill="black" fill-opacity="0.25" stroke="black" stroke-width="2"/>
<rect x="13" y="78" width="10" height="10" rx="3" transform="rotate(90 13 78)" fill="black" fill-opacity="0.25" stroke="black" stroke-width="2"/>
<rect x="13" y="92" width="10" height="10" rx="3" transform="rotate(90 13 92)" fill="black" fill-opacity="0.25" stroke="black" stroke-width="2"/>
<rect x="13" y="106" width="10" height="10" rx="3" transform="rotate(90 13 106)" fill="black" fill-opacity="0.25" stroke="black" stroke-width="2"/>
<rect x="3" y="22" width="10" height="10" rx="3" fill="black" fill-opacity="0.25" stroke="black" stroke-width="2"/>
<rect x="3" y="136" width="10" height="10" rx="3" fill="black" fill-opacity="0.5" stroke="black" stroke-width="2"/>
</g>
<defs>
<clipPath id="clip0">
<rect width="210.821" height="150" fill="white"/>
</clipPath>
</defs>
</svg>
