<?xml version="1.0" encoding="UTF-8" standalone="no"?>
<svg
   xmlns:dc="http://purl.org/dc/elements/1.1/"
   xmlns:cc="http://creativecommons.org/ns#"
   xmlns:rdf="http://www.w3.org/1999/02/22-rdf-syntax-ns#"
   xmlns:svg="http://www.w3.org/2000/svg"
   xmlns="http://www.w3.org/2000/svg"
   version="1.0"
   id="svg4589"
   height="200"
   width="200">
  <defs
     id="defs4591" />
  <metadata
     id="metadata4594">
    <rdf:RDF>
      <cc:Work
         rdf:about="">
        <dc:format>image/svg+xml</dc:format>
        <dc:type
           rdf:resource="http://purl.org/dc/dcmitype/StillImage" />
        <dc:title></dc:title>
      </cc:Work>
    </rdf:RDF>
  </metadata>
  <g
     id="layer1">
    <path
       id="path2445-3"
       d="M 100,0 C 44.77576,0 0,44.77058 0,99.999822 c 0,55.229238 44.775763,99.999818 100,99.999818 55.22424,0 99.99999,-44.77058 100,-99.999818 C 200,44.770583 155.22424,0 100,0 Z"
       style="font-size:20.48839951px;font-family:TrebuchetMS-Bold;fill:#ffffff;fill-opacity:1;fill-rule:evenodd;stroke:none;stroke-width:1.43176603;stroke-miterlimit:4" />
    <path
       id="path2445"
       d="M 100,1e-6 C 44.77576,1e-6 0,44.770581 0,99.999822 c 0,55.229238 44.775763,99.999818 100,99.999818 55.22424,0 99.99999,-44.77058 100,-99.999818 C 200,44.770584 155.22424,10e-7 100,1e-6 Z m 0.47883,13.848963 c 47.58266,0 86.18784,38.573379 86.18784,86.150858 0,47.582598 -38.61027,86.150858 -86.18784,86.150858 -25.69281,0 -48.747677,-11.26044 -64.530395,-29.09755 6.489472,-5.03659 17.346762,-3.80784 30.718232,-2.28361 6.407913,0.72898 13.712683,1.5629 21.252303,1.73112 21.06401,0.12241 43.72809,-3.72202 57.71639,-9.83424 9.04346,-3.96607 14.83362,-6.57791 18.45304,-9.87107 1.30504,-1.07053 1.99037,-2.85893 2.68877,-4.71453 l 0.47881,-1.25231 c 0.58625,-1.49874 1.42756,-4.72376 1.80479,-6.48248 0.16823,-0.76978 0.2508,-1.59756 -0.29466,-2.02579 l -1.95211,0.36833 c -6.13773,3.68059 -21.47241,10.69056 -35.83794,10.97604 -17.80144,0.37213 -53.67996,-17.92058 -57.42173,-19.85263 L 73.186,113.36997 C 72.28879,111.2289 66.91949,98.482366 65.782689,95.800934 91.60803,112.8071 113.01936,122.21997 129.4291,123.68302 c 18.24496,1.6211 32.47678,-8.34002 38.56353,-12.59666 1.18779,-0.81055 2.09563,-1.44615 2.46778,-1.58379 l 0.40516,-0.66299 C 169.8562,102.42658 160.28376,71.393896 153.0755,63.940955 151.07717,61.89675 149.48841,59.907316 146.26151,58.010948 120.17108,42.804297 58.222916,33.645891 55.322283,33.222778 l -0.47882,0.147329 -0.184163,0.405157 c 0,0 -0.232338,12.863577 -0.257827,14.290949 C 52.275697,47.362724 45.684179,45.204692 36.243094,42.615026 48.561638,27.372682 67.43992,13.848965 100.47883,13.848964 Z m 22.76242,45.598445 c 0.43962,-0.0066 0.88341,-0.01466 1.32597,0 14.61533,0.525069 26.09809,12.834993 25.59853,27.440098 -0.26,7.065508 -3.23883,13.593673 -8.39779,18.416173 -5.17426,4.84798 -11.89923,7.37488 -19.00552,7.14548 C 108.17259,111.9037 96.68981,99.593778 97.1639,85.009057 c 0.2498,-7.075707 3.24508,-13.645812 8.43463,-18.453005 4.84607,-4.544981 11.04843,-7.009681 17.64272,-7.108643 z m -0.69982,7.808457 c -4.25654,0.258781 -8.27335,1.987106 -11.41804,4.935535 -3.58373,3.364525 -5.69834,7.919852 -5.85636,12.854488 -0.33645,10.195538 7.64153,18.775581 17.82689,19.152831 4.94994,0.15292 9.64534,-1.58122 13.25967,-4.935546 3.60413,-3.379822 5.70343,-7.977071 5.85636,-12.89132 0.34155,-10.210835 -7.67326,-18.759144 -17.86372,-19.115988 -0.61683,-0.02294 -1.19671,-0.03697 -1.8048,0 z m 4.86188,9.244919 c 4.52683,0 8.17681,2.459945 8.1768,5.488019 0,3.012788 -3.64997,5.488017 -8.1768,5.48802 -4.54212,0 -8.21362,-2.480339 -8.21362,-5.48802 0,-3.028071 3.6715,-5.488016 8.21362,-5.488019 z"
       style="font-size:20.48839951px;font-family:TrebuchetMS-Bold;fill:#73ba25;fill-opacity:1;fill-rule:evenodd;stroke:none;stroke-width:1.43176603;stroke-miterlimit:4" />
  </g>
</svg>
