<?xml version="1.0" encoding="UTF-8" standalone="no"?>
<svg
   width="1472"
   height="1558"
   version="1.1"
   id="svg1"
   sodipodi:docname="arrow-left.svg"
   inkscape:version="1.3.2 (091e20ef0f, 2023-11-25)"
   xmlns:inkscape="http://www.inkscape.org/namespaces/inkscape"
   xmlns:sodipodi="http://sodipodi.sourceforge.net/DTD/sodipodi-0.dtd"
   xmlns="http://www.w3.org/2000/svg"
   xmlns:svg="http://www.w3.org/2000/svg">
  <defs
     id="defs1" />
  <sodipodi:namedview
     id="namedview1"
     pagecolor="#ffffff"
     bordercolor="#000000"
     borderopacity="0.25"
     inkscape:showpageshadow="2"
     inkscape:pageopacity="0.0"
     inkscape:pagecheckerboard="0"
     inkscape:deskcolor="#d1d1d1"
     inkscape:zoom="0.58138021"
     inkscape:cx="770.58007"
     inkscape:cy="706.07839"
     inkscape:window-width="1920"
     inkscape:window-height="1136"
     inkscape:window-x="0"
     inkscape:window-y="0"
     inkscape:window-maximized="1"
     inkscape:current-layer="svg1" />
  <path
     d="m 1472,715 v 128 c 0,68 -45,128 -117,128 H 651 l 293,294 c 24,23 38,56 38,90 0,34 -14,67 -38,90 l -75,76 c -23,23 -56,37 -90,37 -34,0 -67,-14 -91,-37 L 37,869 C 14,846 0,813 0,779 0,745 14,712 37,688 L 688,38 c 24,-24 57,-38 91,-38 34,0 66,14 90,38 l 75,74 c 24,24 38,57 38,91 0,34 -14,67 -38,91 L 651,587 h 704 c 72,0 117,60 117,128 z"
     id="path1" />
</svg>
