<?xml version="1.0" encoding="UTF-8" standalone="no"?>
<svg
   width="1472"
   height="1558"
   version="1.1"
   id="svg1"
   sodipodi:docname="arrow-right.svg"
   inkscape:version="1.3.2 (091e20ef0f, 2023-11-25)"
   xmlns:inkscape="http://www.inkscape.org/namespaces/inkscape"
   xmlns:sodipodi="http://sodipodi.sourceforge.net/DTD/sodipodi-0.dtd"
   xmlns="http://www.w3.org/2000/svg"
   xmlns:svg="http://www.w3.org/2000/svg">
  <defs
     id="defs1" />
  <sodipodi:namedview
     id="namedview1"
     pagecolor="#ffffff"
     bordercolor="#000000"
     borderopacity="0.25"
     inkscape:showpageshadow="2"
     inkscape:pageopacity="0.0"
     inkscape:pagecheckerboard="0"
     inkscape:deskcolor="#d1d1d1"
     inkscape:zoom="0.58138021"
     inkscape:cx="768"
     inkscape:cy="587.3953"
     inkscape:window-width="1920"
     inkscape:window-height="1136"
     inkscape:window-x="0"
     inkscape:window-y="0"
     inkscape:window-maximized="1"
     inkscape:current-layer="svg1" />
  <path
     d="m 1472,779 c 0,34 -13,67 -37,91 l -651,651 c -24,23 -57,37 -91,37 -34,0 -66,-14 -90,-37 l -75,-75 c -24,-24 -38,-57 -38,-91 0,-34 14,-67 38,-91 L 821,971 H 117 C 45,971 0,911 0,843 V 715 C 0,647 45,587 117,587 H 821 L 528,293 c -24,-23 -38,-56 -38,-90 0,-34 14,-67 38,-90 l 75,-75 c 24,-24 56,-38 90,-38 34,0 67,14 91,38 l 651,651 c 24,23 37,56 37,90 z"
     id="path1" />
</svg>
