<?xml version="1.0" encoding="UTF-8" standalone="no"?>
<svg
   width="1663"
   height="1408"
   version="1.1"
   id="svg1"
   sodipodi:docname="check-square-o.svg"
   inkscape:version="1.3.2 (091e20ef0f, 2023-11-25)"
   xmlns:inkscape="http://www.inkscape.org/namespaces/inkscape"
   xmlns:sodipodi="http://sodipodi.sourceforge.net/DTD/sodipodi-0.dtd"
   xmlns="http://www.w3.org/2000/svg"
   xmlns:svg="http://www.w3.org/2000/svg">
  <defs
     id="defs1" />
  <sodipodi:namedview
     id="namedview1"
     pagecolor="#ffffff"
     bordercolor="#000000"
     borderopacity="0.25"
     inkscape:showpageshadow="2"
     inkscape:pageopacity="0.0"
     inkscape:pagecheckerboard="0"
     inkscape:deskcolor="#d1d1d1"
     inkscape:zoom="0.58138021"
     inkscape:cx="768"
     inkscape:cy="640.71669"
     inkscape:window-width="1920"
     inkscape:window-height="1136"
     inkscape:window-x="0"
     inkscape:window-y="0"
     inkscape:window-maximized="1"
     inkscape:current-layer="svg1" />
  <path
     d="m 1408,802 v 318 c 0,159 -129,288 -288,288 H 288 C 129,1408 0,1279 0,1120 V 288 C 0,129 129,0 288,0 h 832 c 40,0 80,8 117,25 9,4 16,13 18,23 2,11 -1,21 -9,29 l -49,49 c -6,6 -15,10 -23,10 -3,0 -6,-1 -9,-2 -15,-4 -30,-6 -45,-6 H 288 c -88,0 -160,72 -160,160 v 832 c 0,88 72,160 160,160 h 832 c 88,0 160,-72 160,-160 V 866 c 0,-8 3,-16 9,-22 l 64,-64 c 7,-7 15,-10 23,-10 4,0 8,1 12,3 12,5 20,16 20,29 z m 231,-489 -814,814 c -32,32 -82,32 -114,0 L 281,697 c -32,-32 -32,-82 0,-114 L 391,473 c 32,-32 82,-32 114,0 L 768,736 1415,89 c 32,-32 82,-32 114,0 l 110,110 c 32,32 32,82 0,114 z"
     id="path1" />
</svg>
