<?xml version="1.0" encoding="UTF-8" standalone="no"?>
<svg
   width="1536"
   height="1536"
   version="1.1"
   id="svg1"
   sodipodi:docname="dot-circle-o.svg"
   inkscape:version="1.3.2 (091e20ef0f, 2023-11-25)"
   xmlns:inkscape="http://www.inkscape.org/namespaces/inkscape"
   xmlns:sodipodi="http://sodipodi.sourceforge.net/DTD/sodipodi-0.dtd"
   xmlns="http://www.w3.org/2000/svg"
   xmlns:svg="http://www.w3.org/2000/svg">
  <defs
     id="defs1" />
  <sodipodi:namedview
     id="namedview1"
     pagecolor="#ffffff"
     bordercolor="#000000"
     borderopacity="0.25"
     inkscape:showpageshadow="2"
     inkscape:pageopacity="0.0"
     inkscape:pagecheckerboard="0"
     inkscape:deskcolor="#d1d1d1"
     inkscape:zoom="0.58138021"
     inkscape:cx="768"
     inkscape:cy="640.71669"
     inkscape:window-width="1920"
     inkscape:window-height="1136"
     inkscape:window-x="0"
     inkscape:window-y="0"
     inkscape:window-maximized="1"
     inkscape:current-layer="svg1" />
  <path
     d="m 1024,768 c 0,141 -115,256 -256,256 -141,0 -256,-115 -256,-256 0,-141 115,-256 256,-256 141,0 256,115 256,256 z M 768,224 c -300,0 -544,244 -544,544 0,300 244,544 544,544 300,0 544,-244 544,-544 0,-300 -244,-544 -544,-544 z m 768,544 c 0,424 -344,768 -768,768 C 344,1536 0,1192 0,768 0,344 344,0 768,0 c 424,0 768,344 768,768 z"
     id="path1" />
</svg>
