<?xml version="1.0" encoding="UTF-8" standalone="no"?>
<svg
   width="1792"
   height="1536"
   version="1.1"
   id="svg1"
   sodipodi:docname="external-link.svg"
   inkscape:version="1.3.2 (091e20ef0f, 2023-11-25)"
   xmlns:inkscape="http://www.inkscape.org/namespaces/inkscape"
   xmlns:sodipodi="http://sodipodi.sourceforge.net/DTD/sodipodi-0.dtd"
   xmlns="http://www.w3.org/2000/svg"
   xmlns:svg="http://www.w3.org/2000/svg">
  <defs
     id="defs1" />
  <sodipodi:namedview
     id="namedview1"
     pagecolor="#ffffff"
     bordercolor="#000000"
     borderopacity="0.25"
     inkscape:showpageshadow="2"
     inkscape:pageopacity="0.0"
     inkscape:pagecheckerboard="0"
     inkscape:deskcolor="#d1d1d1"
     inkscape:zoom="0.58138021"
     inkscape:cx="768"
     inkscape:cy="768"
     inkscape:window-width="1920"
     inkscape:window-height="1136"
     inkscape:window-x="0"
     inkscape:window-y="0"
     inkscape:window-maximized="1"
     inkscape:current-layer="svg1" />
  <path
     d="m 1408,928 v 320 c 0,159 -129,288 -288,288 H 288 C 129,1536 0,1407 0,1248 V 416 C 0,257 129,128 288,128 h 704 c 18,0 32,14 32,32 v 64 c 0,18 -14,32 -32,32 H 288 c -88,0 -160,72 -160,160 v 832 c 0,88 72,160 160,160 h 832 c 88,0 160,-72 160,-160 V 928 c 0,-18 14,-32 32,-32 h 64 c 18,0 32,14 32,32 z M 1792,64 v 512 c 0,35 -29,64 -64,64 -17,0 -33,-7 -45,-19 L 1507,445 855,1097 c -6,6 -15,10 -23,10 -8,0 -17,-4 -23,-10 L 695,983 c -6,-6 -10,-15 -10,-23 0,-8 4,-17 10,-23 L 1347,285 1171,109 c -12,-12 -19,-28 -19,-45 0,-35 29,-64 64,-64 h 512 c 35,0 64,29 64,64 z"
     id="path1" />
</svg>
