<?xml version="1.0" encoding="UTF-8" standalone="no"?>
<svg
   width="1664"
   height="1408"
   version="1.1"
   id="svg1"
   sodipodi:docname="github-alt.svg"
   inkscape:version="1.3.2 (091e20ef0f, 2023-11-25)"
   xmlns:inkscape="http://www.inkscape.org/namespaces/inkscape"
   xmlns:sodipodi="http://sodipodi.sourceforge.net/DTD/sodipodi-0.dtd"
   xmlns="http://www.w3.org/2000/svg"
   xmlns:svg="http://www.w3.org/2000/svg">
  <defs
     id="defs1" />
  <sodipodi:namedview
     id="namedview1"
     pagecolor="#ffffff"
     bordercolor="#000000"
     borderopacity="0.25"
     inkscape:showpageshadow="2"
     inkscape:pageopacity="0.0"
     inkscape:pagecheckerboard="0"
     inkscape:deskcolor="#d1d1d1"
     inkscape:zoom="0.58138021"
     inkscape:cx="768"
     inkscape:cy="511.71333"
     inkscape:window-width="1920"
     inkscape:window-height="1136"
     inkscape:window-x="0"
     inkscape:window-y="0"
     inkscape:window-maximized="1"
     inkscape:current-layer="svg1" />
  <path
     d="m 640,960 c 0,73 -38,192 -128,192 -90,0 -128,-119 -128,-192 0,-73 38,-192 128,-192 90,0 128,119 128,192 z m 640,0 c 0,73 -38,192 -128,192 -90,0 -128,-119 -128,-192 0,-73 38,-192 128,-192 90,0 128,119 128,192 z m 160,0 c 0,-153 -93,-288 -256,-288 -66,0 -129,12 -195,21 -52,8 -104,11 -157,11 -53,0 -105,-3 -157,-11 -65,-9 -129,-21 -195,-21 -163,0 -256,135 -256,288 0,306 280,353 524,353 h 168 c 244,0 524,-47 524,-353 z m 224,-176 c 0,111 -11,229 -61,331 -132,267 -495,293 -755,293 C 584,1408 199,1385 62,1115 11,1014 0,895 0,784 0,638 40,500 136,388 118,333 109,275 109,218 109,143 126,68 160,0 c 158,0 259,69 379,163 101,-24 205,-35 309,-35 94,0 189,10 280,32 119,-93 220,-160 376,-160 34,68 51,143 51,218 0,57 -9,114 -27,168 96,113 136,252 136,398 z"
     id="path1" />
</svg>
