<?xml version="1.0" encoding="UTF-8" standalone="no"?>
<svg
   width="1536"
   height="1792"
   version="1.1"
   id="svg1"
   sodipodi:docname="hand-o-up.svg"
   inkscape:version="1.3.2 (091e20ef0f, 2023-11-25)"
   xmlns:inkscape="http://www.inkscape.org/namespaces/inkscape"
   xmlns:sodipodi="http://sodipodi.sourceforge.net/DTD/sodipodi-0.dtd"
   xmlns="http://www.w3.org/2000/svg"
   xmlns:svg="http://www.w3.org/2000/svg">
  <defs
     id="defs1" />
  <sodipodi:namedview
     id="namedview1"
     pagecolor="#ffffff"
     bordercolor="#000000"
     borderopacity="0.25"
     inkscape:showpageshadow="2"
     inkscape:pageopacity="0.0"
     inkscape:pagecheckerboard="0"
     inkscape:deskcolor="#d1d1d1"
     inkscape:zoom="0.58138021"
     inkscape:cx="768"
     inkscape:cy="768"
     inkscape:window-width="1920"
     inkscape:window-height="1136"
     inkscape:window-x="0"
     inkscape:window-y="0"
     inkscape:window-maximized="1"
     inkscape:current-layer="svg1" />
  <path
     d="m 1280,1600 c 0,-35 -29,-64 -64,-64 -35,0 -64,29 -64,64 0,35 29,64 64,64 35,0 64,-29 64,-64 z m 128,-764 c 0,-113 -46,-189 -167,-189 -19,0 -38,2 -56,5 -23,-42 -80,-65 -126,-65 -24,0 -48,6 -69,18 -32,-34 -72,-53 -119,-53 -32,0 -79,14 -103,35 V 256 c 0,-69 -59,-128 -128,-128 -68,0 -128,61 -128,128 v 576 c -63,0 -128,-96 -256,-96 -96,0 -128,75 -128,160 0,28 116,79 139,90 22,12 44,24 65,37 53,33 99,71 145,112 73,64 163,135 163,241 v 32 h 640 v -32 c 0,-175 128,-346 128,-540 z m 128,-5 c 0,112 -31,218 -69,322 -22,61 -59,160 -59,223 v 288 c 0,71 -57,128 -128,128 H 640 c -71,0 -128,-57 -128,-128 v -288 c 0,-48 -86,-116 -119,-145 -41,-36 -82,-70 -129,-100 C 171,1073 0,1030 0,896 0,737 87,608 256,608 c 44,0 87,7 128,22 V 256 C 384,118 501,0 639,0 779,0 896,116 896,256 v 169 c 42,3 82,16 119,37 14,-2 29,-3 43,-3 64,0 128,21 178,60 189,-2 300,127 300,312 z"
     id="path1" />
</svg>
