<?xml version="1.0" encoding="UTF-8" standalone="no"?>
<svg
   width="1536"
   height="1280"
   version="1.1"
   id="svg1"
   sodipodi:docname="hdd-o.svg"
   inkscape:version="1.3.2 (091e20ef0f, 2023-11-25)"
   xmlns:inkscape="http://www.inkscape.org/namespaces/inkscape"
   xmlns:sodipodi="http://sodipodi.sourceforge.net/DTD/sodipodi-0.dtd"
   xmlns="http://www.w3.org/2000/svg"
   xmlns:svg="http://www.w3.org/2000/svg">
  <defs
     id="defs1" />
  <sodipodi:namedview
     id="namedview1"
     pagecolor="#ffffff"
     bordercolor="#000000"
     borderopacity="0.25"
     inkscape:showpageshadow="2"
     inkscape:pageopacity="0.0"
     inkscape:pagecheckerboard="0"
     inkscape:deskcolor="#d1d1d1"
     inkscape:zoom="0.58138021"
     inkscape:cx="768"
     inkscape:cy="511.71333"
     inkscape:window-width="1920"
     inkscape:window-height="1136"
     inkscape:window-x="0"
     inkscape:window-y="0"
     inkscape:window-maximized="1"
     inkscape:current-layer="svg1" />
  <path
     d="m 1040,960 c 0,44 -36,80 -80,80 -44,0 -80,-36 -80,-80 0,-44 36,-80 80,-80 44,0 80,36 80,80 z m 256,0 c 0,44 -36,80 -80,80 -44,0 -80,-36 -80,-80 0,-44 36,-80 80,-80 44,0 80,36 80,80 z m 112,160 V 800 c 0,-17 -15,-32 -32,-32 H 160 c -17,0 -32,15 -32,32 v 320 c 0,17 15,32 32,32 h 1216 c 17,0 32,-15 32,-32 z M 178,640 H 1358 L 1201,158 c -5,-17 -24,-30 -42,-30 H 377 c -18,0 -37,13 -42,30 z m 1358,160 v 320 c 0,88 -72,160 -160,160 H 160 C 72,1280 0,1208 0,1120 V 800 C 0,773 8,750 16,725 L 213,119 C 236,49 303,0 377,0 h 782 c 74,0 141,49 164,119 l 197,606 c 8,25 16,48 16,75 z"
     id="path1" />
</svg>
