<?xml version="1.0" encoding="UTF-8" standalone="no"?>
<svg
   width="1792"
   height="1792"
   version="1.1"
   id="svg1"
   sodipodi:docname="industry.svg"
   inkscape:version="1.3.2 (091e20ef0f, 2023-11-25)"
   xmlns:inkscape="http://www.inkscape.org/namespaces/inkscape"
   xmlns:sodipodi="http://sodipodi.sourceforge.net/DTD/sodipodi-0.dtd"
   xmlns="http://www.w3.org/2000/svg"
   xmlns:svg="http://www.w3.org/2000/svg">
  <defs
     id="defs1" />
  <sodipodi:namedview
     id="namedview1"
     pagecolor="#ffffff"
     bordercolor="#000000"
     borderopacity="0.25"
     inkscape:showpageshadow="2"
     inkscape:pageopacity="0.0"
     inkscape:pagecheckerboard="0"
     inkscape:deskcolor="#d1d1d1"
     inkscape:zoom="0.58138021"
     inkscape:cx="768"
     inkscape:cy="768"
     inkscape:window-width="1920"
     inkscape:window-height="1136"
     inkscape:window-x="0"
     inkscape:window-y="0"
     inkscape:window-maximized="1"
     inkscape:current-layer="svg1" />
  <path
     d="m 448,0 c 35,0 64,29 64,64 v 891 l 536,-429 c 11,-9 26,-14 40,-14 35,0 64,29 64,64 v 379 l 536,-429 c 11,-9 26,-14 40,-14 35,0 64,29 64,64 v 1152 c 0,35 -29,64 -64,64 H 64 C 29,1792 0,1763 0,1728 V 64 C 0,29 29,0 64,0 Z"
     id="path1" />
</svg>
