<?xml version="1.0" encoding="UTF-8" standalone="no"?>
<svg
   width="1536.001"
   height="1646.686"
   viewBox="0 0 1536.001 1646.686"
   version="1.1"
   id="svg1"
   sodipodi:docname="mastodon.svg"
   inkscape:version="1.3.2 (091e20ef0f, 2023-11-25)"
   xmlns:inkscape="http://www.inkscape.org/namespaces/inkscape"
   xmlns:sodipodi="http://sodipodi.sourceforge.net/DTD/sodipodi-0.dtd"
   xmlns="http://www.w3.org/2000/svg"
   xmlns:svg="http://www.w3.org/2000/svg">
  <defs
     id="defs1" />
  <sodipodi:namedview
     id="namedview1"
     pagecolor="#ffffff"
     bordercolor="#000000"
     borderopacity="0.25"
     inkscape:showpageshadow="2"
     inkscape:pageopacity="0.0"
     inkscape:pagecheckerboard="0"
     inkscape:deskcolor="#d1d1d1"
     inkscape:zoom="0.49832589"
     inkscape:cx="768.57335"
     inkscape:cy="771.58343"
     inkscape:window-width="1920"
     inkscape:window-height="1136"
     inkscape:window-x="0"
     inkscape:window-y="0"
     inkscape:window-maximized="1"
     inkscape:current-layer="svg1" />
  <path
     d="m 1503.302,987.172 c -22.579,116.159 -202.224,243.284 -408.55,267.921 -107.58795,12.837 -213.51895,24.636 -326.47595,19.455 -184.728,-8.463 -330.494,-44.092 -330.494,-44.092 0,17.983 1.11,35.106 3.328,51.12 24.015,182.308 180.772,193.228 329.261,198.32 149.872,5.127 283.32095,-36.951 283.32095,-36.951 l 6.157,135.491 c 0,0 -104.82695,56.293 -291.57395,66.646 -102.974,5.66 -230.836,-2.59 -379.759,-42.009 C 65.529046,1517.583 10.219046,1173.288 1.4820463,823.956 -1.1099537,720.235 0.48504628,622.432 0.49004628,540.633 0.50004628,183.417 234.53905,78.71 234.53905,78.71 352.55005,24.511 555.05105,1.72 765.57205,0 h 5.173 c 210.52,1.721 413.15195,24.511 531.15695,78.71 0,0 234.04,104.706 234.04,461.923 0,0 2.935,263.556 -32.64,446.539 z M 1259.873,568.345 c 0,-88.4 -21.711,-159.35 -67.71,-210.618 -46.63,-51.972 -107.687,-78.613 -183.47,-78.613 -87.69895,0 -154.10395,33.703 -198.00195,101.121 l -42.691,71.551 -42.683,-71.55 c -43.907,-67.42 -110.313,-101.124 -198.003,-101.124 -75.792,0 -136.849,26.642 -183.47,78.614 -45.21,51.973 -67.718,122.219 -67.718,210.618 v 432.53 h 171.359 V 581.059 c 0,-88.498 37.234,-133.415 111.713,-133.415 82.35,0 123.63,53.283 123.63,158.646 v 229.788 h 170.35 V 606.291 c 0,-105.363 41.272,-158.646 123.62,-158.646 74.47795,0 111.71495,44.917 111.71495,133.415 v 419.816 h 171.358 v -432.53 z"
     id="path1" />
</svg>
