<?xml version="1.0" encoding="UTF-8" standalone="no"?>
<svg
   width="1920"
   height="1536"
   version="1.1"
   id="svg1"
   sodipodi:docname="picture-o.svg"
   inkscape:version="1.3.2 (091e20ef0f, 2023-11-25)"
   xmlns:inkscape="http://www.inkscape.org/namespaces/inkscape"
   xmlns:sodipodi="http://sodipodi.sourceforge.net/DTD/sodipodi-0.dtd"
   xmlns="http://www.w3.org/2000/svg"
   xmlns:svg="http://www.w3.org/2000/svg">
  <defs
     id="defs1" />
  <sodipodi:namedview
     id="namedview1"
     pagecolor="#ffffff"
     bordercolor="#000000"
     borderopacity="0.25"
     inkscape:showpageshadow="2"
     inkscape:pageopacity="0.0"
     inkscape:pagecheckerboard="0"
     inkscape:deskcolor="#d1d1d1"
     inkscape:zoom="0.58138021"
     inkscape:cx="768"
     inkscape:cy="640.71669"
     inkscape:window-width="1920"
     inkscape:window-height="1136"
     inkscape:window-x="0"
     inkscape:window-y="0"
     inkscape:window-maximized="1"
     inkscape:current-layer="svg1" />
  <path
     d="m 640,448 c 0,106 -86,192 -192,192 -106,0 -192,-86 -192,-192 0,-106 86,-192 192,-192 106,0 192,86 192,192 z m 1024,384 v 448 H 256 V 1088 L 576,768 736,928 1248,416 Z m 96,-704 H 160 c -17,0 -32,15 -32,32 v 1216 c 0,17 15,32 32,32 h 1600 c 17,0 32,-15 32,-32 V 160 c 0,-17 -15,-32 -32,-32 z m 160,32 v 1216 c 0,88 -72,160 -160,160 H 160 C 72,1536 0,1464 0,1376 V 160 C 0,72 72,0 160,0 h 1600 c 88,0 160,72 160,160 z"
     id="path1" />
</svg>
