<?xml version="1.0" encoding="UTF-8" standalone="no"?>
<svg
   width="1792"
   height="1792"
   version="1.1"
   id="svg1"
   sodipodi:docname="reddit.svg"
   inkscape:version="1.3.2 (091e20ef0f, 2023-11-25)"
   xmlns:inkscape="http://www.inkscape.org/namespaces/inkscape"
   xmlns:sodipodi="http://sodipodi.sourceforge.net/DTD/sodipodi-0.dtd"
   xmlns="http://www.w3.org/2000/svg"
   xmlns:svg="http://www.w3.org/2000/svg">
  <defs
     id="defs1" />
  <sodipodi:namedview
     id="namedview1"
     pagecolor="#ffffff"
     bordercolor="#000000"
     borderopacity="0.25"
     inkscape:showpageshadow="2"
     inkscape:pageopacity="0.0"
     inkscape:pagecheckerboard="0"
     inkscape:deskcolor="#d1d1d1"
     inkscape:zoom="0.58138021"
     inkscape:cx="767.13998"
     inkscape:cy="768"
     inkscape:window-width="1920"
     inkscape:window-height="1136"
     inkscape:window-x="0"
     inkscape:window-y="0"
     inkscape:window-maximized="1"
     inkscape:current-layer="svg1" />
  <path
     d="m 1095,1167 c 9,9 9,23 0,31 -57,57 -167,62 -199,62 -32,0 -142,-5 -199,-62 -9,-8 -9,-22 0,-31 8,-8 22,-8 30,0 36,37 114,49 169,49 55,0 132,-12 169,-49 8,-8 22,-8 30,0 z M 788,986 c 0,49 -40,89 -89,89 -50,0 -90,-40 -90,-89 0,-50 40,-90 90,-90 49,0 89,40 89,90 z m 395,0 c 0,49 -40,89 -90,89 -49,0 -89,-40 -89,-89 0,-50 40,-90 89,-90 50,0 90,40 90,90 z m 251,-120 c 0,-66 -54,-119 -120,-119 -34,0 -64,14 -86,36 -81,-56 -190,-92 -311,-96 l 63,-283 200,45 c 0,49 40,89 89,89 50,0 90,-41 90,-90 0,-49 -40,-90 -90,-90 -35,0 -65,21 -80,50 L 968,359 c -11,-3 -22,5 -25,16 l -69,312 c -120,5 -228,41 -309,97 -22,-23 -53,-37 -87,-37 -66,0 -120,53 -120,119 0,48 28,88 68,108 -4,18 -6,37 -6,56 0,190 214,344 477,344 264,0 478,-154 478,-344 0,-19 -2,-39 -7,-57 39,-20 66,-60 66,-107 z m 358,30 c 0,495 -401,896 -896,896 C 401,1792 0,1391 0,896 0,401 401,0 896,0 c 495,0 896,401 896,896 z"
     id="path1" />
</svg>
