<?xml version="1.0" encoding="UTF-8" standalone="no"?>
<svg
   width="1664"
   height="1408"
   version="1.1"
   id="svg1"
   sodipodi:docname="shopping-cart.svg"
   inkscape:version="1.3.2 (091e20ef0f, 2023-11-25)"
   xmlns:inkscape="http://www.inkscape.org/namespaces/inkscape"
   xmlns:sodipodi="http://sodipodi.sourceforge.net/DTD/sodipodi-0.dtd"
   xmlns="http://www.w3.org/2000/svg"
   xmlns:svg="http://www.w3.org/2000/svg">
  <defs
     id="defs1" />
  <sodipodi:namedview
     id="namedview1"
     pagecolor="#ffffff"
     bordercolor="#000000"
     borderopacity="0.25"
     inkscape:showpageshadow="2"
     inkscape:pageopacity="0.0"
     inkscape:pagecheckerboard="0"
     inkscape:deskcolor="#d1d1d1"
     inkscape:zoom="0.58138021"
     inkscape:cx="768"
     inkscape:cy="511.71333"
     inkscape:window-width="1920"
     inkscape:window-height="1136"
     inkscape:window-x="0"
     inkscape:window-y="0"
     inkscape:window-maximized="1"
     inkscape:current-layer="svg1" />
  <path
     d="m 640,1280 c 0,70 -58,128 -128,128 -70,0 -128,-58 -128,-128 0,-70 58,-128 128,-128 70,0 128,58 128,128 z m 896,0 c 0,70 -58,128 -128,128 -70,0 -128,-58 -128,-128 0,-70 58,-128 128,-128 70,0 128,58 128,128 z M 1664,192 v 512 c 0,32 -25,60 -57,64 L 563,890 c 5,23 13,46 13,70 0,23 -14,44 -24,64 h 920 c 35,0 64,29 64,64 0,35 -29,64 -64,64 H 448 c -35,0 -64,-29 -64,-64 0,-31 45,-106 61,-137 L 268,128 H 64 C 29,128 0,99 0,64 0,29 29,0 64,0 h 256 c 67,0 69,80 79,128 h 1201 c 35,0 64,29 64,64 z"
     id="path1" />
</svg>
