<?xml version="1.0" encoding="UTF-8" standalone="no"?>
<svg
   width="1188"
   height="1188"
   version="1.1"
   id="svg1"
   sodipodi:docname="times.svg"
   inkscape:version="1.3.2 (091e20ef0f, 2023-11-25)"
   xmlns:inkscape="http://www.inkscape.org/namespaces/inkscape"
   xmlns:sodipodi="http://sodipodi.sourceforge.net/DTD/sodipodi-0.dtd"
   xmlns="http://www.w3.org/2000/svg"
   xmlns:svg="http://www.w3.org/2000/svg">
  <defs
     id="defs1" />
  <sodipodi:namedview
     id="namedview1"
     pagecolor="#ffffff"
     bordercolor="#000000"
     borderopacity="0.25"
     inkscape:showpageshadow="2"
     inkscape:pageopacity="0.0"
     inkscape:pagecheckerboard="0"
     inkscape:deskcolor="#d1d1d1"
     inkscape:zoom="0.58138021"
     inkscape:cx="657.91713"
     inkscape:cy="401.63046"
     inkscape:window-width="1920"
     inkscape:window-height="1136"
     inkscape:window-x="0"
     inkscape:window-y="0"
     inkscape:window-maximized="1"
     inkscape:current-layer="svg1" />
  <path
     d="m 1188,956 c 0,25 -10,50 -28,68 l -136,136 c -18,18 -43,28 -68,28 -25,0 -50,-10 -68,-28 L 594,866 300,1160 c -18,18 -43,28 -68,28 -25,0 -50,-10 -68,-28 L 28,1024 C 10,1006 0,981 0,956 0,931 10,906 28,888 L 322,594 28,300 C 10,282 0,257 0,232 0,207 10,182 28,164 L 164,28 c 18,-18 43,-28 68,-28 25,0 50,10 68,28 L 594,322 888,28 c 18,-18 43,-28 68,-28 25,0 50,10 68,28 l 136,136 c 18,18 28,43 28,68 0,25 -10,50 -28,68 l -294,294 294,294 c 18,18 28,43 28,68 z"
     id="path1" />
</svg>
