<?xml version="1.0" encoding="UTF-8" standalone="no"?>
<svg
   width="1576"
   height="1280"
   version="1.1"
   id="svg1"
   sodipodi:docname="twitter.svg"
   inkscape:version="1.3.2 (091e20ef0f, 2023-11-25)"
   xmlns:inkscape="http://www.inkscape.org/namespaces/inkscape"
   xmlns:sodipodi="http://sodipodi.sourceforge.net/DTD/sodipodi-0.dtd"
   xmlns="http://www.w3.org/2000/svg"
   xmlns:svg="http://www.w3.org/2000/svg">
  <defs
     id="defs1" />
  <sodipodi:namedview
     id="namedview1"
     pagecolor="#ffffff"
     bordercolor="#000000"
     borderopacity="0.25"
     inkscape:showpageshadow="2"
     inkscape:pageopacity="0.0"
     inkscape:pagecheckerboard="0"
     inkscape:deskcolor="#d1d1d1"
     inkscape:zoom="0.58138021"
     inkscape:cx="722.41881"
     inkscape:cy="511.71333"
     inkscape:window-width="1920"
     inkscape:window-height="1136"
     inkscape:window-x="0"
     inkscape:window-y="0"
     inkscape:window-maximized="1"
     inkscape:current-layer="svg1" />
  <path
     d="m 1576,152 c -44,64 -99,121 -162,167 1,14 1,28 1,42 0,427 -325,919 -919,919 -183,0 -353,-53 -496,-145 26,3 51,4 78,4 151,0 290,-51 401,-138 -142,-3 -261,-96 -302,-224 20,3 40,5 61,5 29,0 58,-4 85,-11 C 175,741 64,611 64,454 v -4 c 43,24 93,39 146,41 C 123,433 66,334 66,222 66,162 82,107 110,59 269,255 508,383 776,397 771,373 768,348 768,323 768,145 912,0 1091,0 c 93,0 177,39 236,102 73,-14 143,-41 205,-78 -24,75 -75,138 -142,178 65,-7 128,-25 186,-50 z"
     id="path1" />
</svg>
