<?xml version="1.0" encoding="UTF-8" standalone="no"?>
<!-- Created with Inkscape (http://www.inkscape.org/) -->

<svg
   xmlns:dc="http://purl.org/dc/elements/1.1/"
   xmlns:cc="http://creativecommons.org/ns#"
   xmlns:rdf="http://www.w3.org/1999/02/22-rdf-syntax-ns#"
   xmlns:svg="http://www.w3.org/2000/svg"
   xmlns="http://www.w3.org/2000/svg"
   xmlns:sodipodi="http://sodipodi.sourceforge.net/DTD/sodipodi-0.dtd"
   xmlns:inkscape="http://www.inkscape.org/namespaces/inkscape"
   width="100"
   height="100"
   id="svg2"
   version="1.1"
   inkscape:version="0.48.4 r9939"
   sodipodi:docname="korora-icon-generic.svg"
   inkscape:export-filename="/home/firnsy/workspace/src/kororaproject/artwork/icons/16x16/korora-icon-generic.png"
   inkscape:export-xdpi="14.4"
   inkscape:export-ydpi="14.4">
  <defs
     id="defs4">
    <filter
       color-interpolation-filters="sRGB"
       inkscape:collect="always"
       id="filter4069">
      <feGaussianBlur
         inkscape:collect="always"
         stdDeviation="3.8200001"
         id="feGaussianBlur4071" />
    </filter>
  </defs>
  <sodipodi:namedview
     id="base"
     pagecolor="#ffffff"
     bordercolor="#666666"
     borderopacity="1.0"
     inkscape:pageopacity="0.0"
     inkscape:pageshadow="2"
     inkscape:zoom="2.8284271"
     inkscape:cx="-33.82017"
     inkscape:cy="35.37931"
     inkscape:document-units="px"
     inkscape:current-layer="layer1"
     showgrid="false"
     inkscape:window-width="1280"
     inkscape:window-height="751"
     inkscape:window-x="0"
     inkscape:window-y="22"
     inkscape:window-maximized="1" />
  <metadata
     id="metadata7">
    <rdf:RDF>
      <cc:Work
         rdf:about="">
        <dc:format>image/svg+xml</dc:format>
        <dc:type
           rdf:resource="http://purl.org/dc/dcmitype/StillImage" />
        <dc:title></dc:title>
      </cc:Work>
    </rdf:RDF>
  </metadata>
  <g
     inkscape:label="Layer 1"
     inkscape:groupmode="layer"
     id="layer1"
     transform="translate(0,-952.36218)">
    <a
       transform="matrix(0.37812862,0,0,0.37812775,-9.7462916,783.06559)"
       style="opacity:0.25;fill:#000000;fill-opacity:1;stroke:#000000;stroke-opacity:1;display:inline;filter:url(#filter4069)"
       id="a3011-8-0-2-7-8">
      <g
         transform="matrix(1.6275597,0,0,1.6275597,-255.23429,322.23974)"
         style="font-size:144px;font-style:normal;font-variant:normal;font-weight:300;font-stretch:condensed;line-height:125%;letter-spacing:0px;word-spacing:0px;fill:#000000;fill-opacity:1;stroke:#000000;stroke-opacity:1;font-family:Open Sans;-inkscape-font-specification:Open Sans Light Condensed"
         id="flowRoot2999-5-8-7-3-5">
        <path
           id="path3030-0-2-2-8-2"
           d="m 237.02432,144.0205 c -20.5319,1.13212 -36.82661,18.14322 -36.82661,38.95786 l 0,0.24961 0,38.76586 38.47786,0 0.53761,0 c 21.54699,0 39.01546,-17.46855 39.01546,-39.01547 0,-18.9669 -13.53152,-34.77236 -31.46965,-38.28584 0.0513,1.73369 0.26036,3.45808 0.61442,5.14574 14.9078,3.66198 25.9783,17.10285 25.9783,33.1401 0,18.85357 -15.28515,34.13854 -34.13853,34.13854 l -0.48001,0 -33.65853,0 0,-33.92733 0,-0.21121 c 0,-18.24489 14.30404,-33.15685 32.31449,-34.10013 -0.2171,-1.61031 -0.33598,-3.2345 -0.36481,-4.85773 z m 41.51153,-39.38028 c -21.54696,0 -39.01546,17.4685 -39.01546,39.01547 0,18.96043 13.52144,34.74598 31.45045,38.26664 -0.0367,-1.73531 -0.23065,-3.44792 -0.57601,-5.12654 -14.91766,-3.65514 -25.99751,-17.09597 -25.99751,-33.1401 0,-18.8536 15.28494,-34.13853 34.13853,-34.13853 l 0.48001,0 33.65852,0 0,33.92732 0,0.21121 c 0,18.21243 -14.27279,33.07057 -32.23768,34.06173 0.0999,0.80587 0.1683,1.62206 0.21121,2.43847 0.0702,0.81343 0.104,1.62878 0.1152,2.43846 20.51378,-1.15122 36.78821,-18.13702 36.78821,-38.93866 l 0,-0.24961 0,-38.76586 -38.47785,0 z"
           inkscape:connector-curvature="0"
           style="fill:#000000;fill-opacity:1;stroke:#000000;stroke-opacity:1"
           sodipodi:nodetypes="cscccssccsscccsccssccsscccscccscccs" />
      </g>
    </a>
    <a
       transform="matrix(0.37812862,0,0,0.37812775,-12.806951,780.00493)"
       style="fill:#ffffff;fill-opacity:1;stroke:#ffffff;stroke-opacity:1;display:inline"
       id="a3011-8-0-2-7">
      <g
         transform="matrix(1.6275597,0,0,1.6275597,-255.23429,322.23974)"
         style="font-size:144px;font-style:normal;font-variant:normal;font-weight:300;font-stretch:condensed;line-height:125%;letter-spacing:0px;word-spacing:0px;fill:#ffffff;fill-opacity:1;stroke:#ffffff;stroke-opacity:1;font-family:Open Sans;-inkscape-font-specification:Open Sans Light Condensed"
         id="flowRoot2999-5-8-7-3">
        <path
           id="path3030-0-2-2-8"
           d="m 237.02432,144.0205 c -20.5319,1.13212 -36.82661,18.14322 -36.82661,38.95786 l 0,0.24961 0,38.76586 38.47786,0 0.53761,0 c 21.54699,0 39.01546,-17.46855 39.01546,-39.01547 0,-18.9669 -13.53152,-34.77236 -31.46965,-38.28584 0.0513,1.73369 0.26036,3.45808 0.61442,5.14574 14.9078,3.66198 25.9783,17.10285 25.9783,33.1401 0,18.85357 -15.28515,34.13854 -34.13853,34.13854 l -0.48001,0 -33.65853,0 0,-33.92733 0,-0.21121 c 0,-18.24489 14.30404,-33.15685 32.31449,-34.10013 -0.2171,-1.61031 -0.33598,-3.2345 -0.36481,-4.85773 z m 41.51153,-39.38028 c -21.54696,0 -39.01546,17.4685 -39.01546,39.01547 0,18.96043 13.52144,34.74598 31.45045,38.26664 -0.0367,-1.73531 -0.23065,-3.44792 -0.57601,-5.12654 -14.91766,-3.65514 -25.99751,-17.09597 -25.99751,-33.1401 0,-18.8536 15.28494,-34.13853 34.13853,-34.13853 l 0.48001,0 33.65852,0 0,33.92732 0,0.21121 c 0,18.21243 -14.27279,33.07057 -32.23768,34.06173 0.0999,0.80587 0.1683,1.62206 0.21121,2.43847 0.0702,0.81343 0.104,1.62878 0.1152,2.43846 20.51378,-1.15122 36.78821,-18.13702 36.78821,-38.93866 l 0,-0.24961 0,-38.76586 -38.47785,0 z"
           inkscape:connector-curvature="0"
           style="fill:#ffffff;fill-opacity:1;stroke:#ffffff;stroke-opacity:1"
           sodipodi:nodetypes="cscccssccsscccsccssccsscccscccscccs" />
      </g>
    </a>
  </g>
</svg>
